<mxfile host="app.diagrams.net" modified="2023-06-12T19:12:55.210Z" agent="Mozilla/5.0 (Windows NT 10.0; Win64; x64) AppleWebKit/537.36 (KHTML, like Gecko) Chrome/114.0.0.0 Safari/537.36" etag="HMl47A1NpgkuIh66TWow" version="21.3.8" type="device">
  <diagram name="Page-1" id="M3RL2Plvyvkz_ilrqSTV">
    <mxGraphModel dx="225" dy="117" grid="1" gridSize="10" guides="1" tooltips="1" connect="1" arrows="1" fold="1" page="1" pageScale="1" pageWidth="827" pageHeight="1169" math="0" shadow="0">
      <root>
        <mxCell id="0" />
        <mxCell id="1" parent="0" />
        <mxCell id="IhPibM-xZhfYetzPPshh-1" value="ESP32" style="rounded=0;whiteSpace=wrap;html=1;" vertex="1" parent="1">
          <mxGeometry x="360" y="120" width="120" height="160" as="geometry" />
        </mxCell>
        <mxCell id="IhPibM-xZhfYetzPPshh-2" value="Left Motor Driver" style="rounded=0;whiteSpace=wrap;html=1;" vertex="1" parent="1">
          <mxGeometry x="300" y="400" width="80" height="40" as="geometry" />
        </mxCell>
        <mxCell id="IhPibM-xZhfYetzPPshh-3" value="Right Motor Driver" style="rounded=0;whiteSpace=wrap;html=1;" vertex="1" parent="1">
          <mxGeometry x="300" y="330" width="80" height="40" as="geometry" />
        </mxCell>
        <mxCell id="IhPibM-xZhfYetzPPshh-4" value="" style="endArrow=none;html=1;rounded=0;exitX=1;exitY=0.25;exitDx=0;exitDy=0;entryX=0.333;entryY=1;entryDx=0;entryDy=0;entryPerimeter=0;" edge="1" parent="1" source="IhPibM-xZhfYetzPPshh-3" target="IhPibM-xZhfYetzPPshh-1">
          <mxGeometry width="50" height="50" relative="1" as="geometry">
            <mxPoint x="390" y="340" as="sourcePoint" />
            <mxPoint x="400" y="290" as="targetPoint" />
            <Array as="points">
              <mxPoint x="400" y="340" />
            </Array>
          </mxGeometry>
        </mxCell>
        <mxCell id="IhPibM-xZhfYetzPPshh-6" value="" style="endArrow=none;html=1;rounded=0;exitX=1;exitY=0.25;exitDx=0;exitDy=0;entryX=0.5;entryY=1;entryDx=0;entryDy=0;" edge="1" parent="1" source="IhPibM-xZhfYetzPPshh-2" target="IhPibM-xZhfYetzPPshh-1">
          <mxGeometry width="50" height="50" relative="1" as="geometry">
            <mxPoint x="390" y="410" as="sourcePoint" />
            <mxPoint x="420" y="290" as="targetPoint" />
            <Array as="points">
              <mxPoint x="420" y="410" />
            </Array>
          </mxGeometry>
        </mxCell>
        <mxCell id="IhPibM-xZhfYetzPPshh-7" value="" style="endArrow=none;html=1;rounded=0;exitDx=0;exitDy=0;entryX=0.667;entryY=1;entryDx=0;entryDy=0;entryPerimeter=0;" edge="1" parent="1" source="IhPibM-xZhfYetzPPshh-12" target="IhPibM-xZhfYetzPPshh-1">
          <mxGeometry width="50" height="50" relative="1" as="geometry">
            <mxPoint x="390" y="430" as="sourcePoint" />
            <mxPoint x="440" y="290" as="targetPoint" />
            <Array as="points" />
          </mxGeometry>
        </mxCell>
        <mxCell id="IhPibM-xZhfYetzPPshh-8" value="" style="endArrow=none;html=1;rounded=0;exitX=1;exitY=0.75;exitDx=0;exitDy=0;" edge="1" parent="1" source="IhPibM-xZhfYetzPPshh-3">
          <mxGeometry width="50" height="50" relative="1" as="geometry">
            <mxPoint x="390" y="360" as="sourcePoint" />
            <mxPoint x="440" y="360" as="targetPoint" />
          </mxGeometry>
        </mxCell>
        <mxCell id="IhPibM-xZhfYetzPPshh-9" value="&lt;font style=&quot;font-size: 10px;&quot;&gt;STEP&amp;nbsp;&lt;/font&gt;" style="text;html=1;strokeColor=none;fillColor=none;align=right;verticalAlign=middle;whiteSpace=wrap;rounded=0;rotation=90;" vertex="1" parent="1">
          <mxGeometry x="426.38" y="253.09" width="32.75" height="21.1" as="geometry" />
        </mxCell>
        <mxCell id="IhPibM-xZhfYetzPPshh-10" value="&lt;font style=&quot;font-size: 10px;&quot;&gt;L_DIR&amp;nbsp;&lt;/font&gt;" style="text;html=1;strokeColor=none;fillColor=none;align=right;verticalAlign=middle;whiteSpace=wrap;rounded=0;rotation=90;" vertex="1" parent="1">
          <mxGeometry x="405.17" y="251.55" width="32.75" height="24.19" as="geometry" />
        </mxCell>
        <mxCell id="IhPibM-xZhfYetzPPshh-11" value="&lt;font style=&quot;font-size: 10px;&quot;&gt;R_DIR&amp;nbsp;&lt;/font&gt;" style="text;html=1;strokeColor=none;fillColor=none;align=right;verticalAlign=middle;whiteSpace=wrap;rounded=0;rotation=90;" vertex="1" parent="1">
          <mxGeometry x="385.42" y="254.42" width="32.75" height="18.45" as="geometry" />
        </mxCell>
        <mxCell id="IhPibM-xZhfYetzPPshh-16" value="" style="endArrow=none;html=1;rounded=0;exitX=1;exitY=0.75;exitDx=0;exitDy=0;entryDx=0;entryDy=0;entryPerimeter=0;" edge="1" parent="1" source="IhPibM-xZhfYetzPPshh-2" target="IhPibM-xZhfYetzPPshh-12">
          <mxGeometry width="50" height="50" relative="1" as="geometry">
            <mxPoint x="380" y="430" as="sourcePoint" />
            <mxPoint x="440" y="280" as="targetPoint" />
            <Array as="points">
              <mxPoint x="440" y="430" />
            </Array>
          </mxGeometry>
        </mxCell>
        <mxCell id="IhPibM-xZhfYetzPPshh-12" value="" style="shape=waypoint;sketch=0;fillStyle=solid;size=6;pointerEvents=1;points=[];fillColor=none;resizable=0;rotatable=0;perimeter=centerPerimeter;snapToPoint=1;" vertex="1" parent="1">
          <mxGeometry x="430" y="350" width="20" height="20" as="geometry" />
        </mxCell>
        <mxCell id="IhPibM-xZhfYetzPPshh-17" value="I2C&lt;br&gt;Multiplexer" style="rounded=0;whiteSpace=wrap;html=1;" vertex="1" parent="1">
          <mxGeometry x="510" y="260" width="110" height="90" as="geometry" />
        </mxCell>
        <mxCell id="IhPibM-xZhfYetzPPshh-21" value="&lt;font style=&quot;font-size: 10px;&quot;&gt;I2C&amp;nbsp;&lt;/font&gt;" style="text;html=1;strokeColor=none;fillColor=none;align=right;verticalAlign=middle;whiteSpace=wrap;rounded=0;rotation=0;movable=1;resizable=1;rotatable=1;deletable=1;editable=1;locked=0;connectable=1;" vertex="1" parent="1">
          <mxGeometry x="447.25" y="230" width="32.75" height="21.55" as="geometry" />
        </mxCell>
        <mxCell id="IhPibM-xZhfYetzPPshh-22" value="FPGA" style="rounded=0;whiteSpace=wrap;html=1;" vertex="1" parent="1">
          <mxGeometry x="480" y="390" width="60" height="50" as="geometry" />
        </mxCell>
        <mxCell id="IhPibM-xZhfYetzPPshh-23" value="Right&lt;br&gt;ToF" style="rounded=0;whiteSpace=wrap;html=1;" vertex="1" parent="1">
          <mxGeometry x="560" y="390" width="60" height="50" as="geometry" />
        </mxCell>
        <mxCell id="IhPibM-xZhfYetzPPshh-24" value="Left&lt;br&gt;ToF" style="rounded=0;whiteSpace=wrap;html=1;" vertex="1" parent="1">
          <mxGeometry x="640" y="390" width="60" height="50" as="geometry" />
        </mxCell>
        <mxCell id="IhPibM-xZhfYetzPPshh-25" value="" style="endArrow=none;html=1;rounded=0;entryX=0.182;entryY=1;entryDx=0;entryDy=0;entryPerimeter=0;exitX=0.5;exitY=0;exitDx=0;exitDy=0;" edge="1" parent="1" source="IhPibM-xZhfYetzPPshh-22" target="IhPibM-xZhfYetzPPshh-17">
          <mxGeometry width="50" height="50" relative="1" as="geometry">
            <mxPoint x="510" y="380" as="sourcePoint" />
            <mxPoint x="530" y="360" as="targetPoint" />
            <Array as="points">
              <mxPoint x="510" y="370" />
              <mxPoint x="530" y="370" />
            </Array>
          </mxGeometry>
        </mxCell>
        <mxCell id="IhPibM-xZhfYetzPPshh-28" value="" style="endArrow=none;html=1;rounded=0;exitX=0.5;exitY=0;exitDx=0;exitDy=0;entryX=0.333;entryY=0;entryDx=0;entryDy=0;entryPerimeter=0;" edge="1" parent="1" target="IhPibM-xZhfYetzPPshh-23">
          <mxGeometry width="50" height="50" relative="1" as="geometry">
            <mxPoint x="550" y="350" as="sourcePoint" />
            <mxPoint x="580" y="380" as="targetPoint" />
            <Array as="points">
              <mxPoint x="550" y="370" />
              <mxPoint x="580" y="370" />
            </Array>
          </mxGeometry>
        </mxCell>
      </root>
    </mxGraphModel>
  </diagram>
</mxfile>
